<?xml version="1.0" encoding="iso-8859-1"?>
<!-- Uploaded to: SVG Repo, www.svgrepo.com, Generator: SVG Repo Mixer Tools -->
<svg height="800px" width="800px" version="1.1" id="Layer_1" xmlns="http://www.w3.org/2000/svg" xmlns:xlink="http://www.w3.org/1999/xlink" 
	 viewBox="0 0 512.001 512.001" xml:space="preserve">
<path style="fill:#F0C419;" d="M122.468,254.481c-17.383-20.238-27.877-46.55-27.877-75.329c0-1.728,0.038-3.456,0.125-5.172
	c2.693-61.528,53.438-110.595,115.655-110.595c63.933,0,115.768,51.835,115.768,115.768c0,30.62-11.91,58.447-31.321,79.149
	c76.043,7.74,131.472-4.483,167.753-27.514c15.993-10.157,36.907,1.465,36.907,20.413v18.648
	c0,98.736-42.467,178.774-141.203,178.774H202.757c-56.644,0-102.505-46.137-102.092-102.868
	c0.238-30.908,14.427-58.397,36.481-76.932C131.836,264.487,126.927,259.678,122.468,254.481z"/>
<path style="fill:#F78A68;" d="M122.468,254.481c-72.411,5.548-109.944-35.179-109.944-35.179
	c41.165-4.909,72.374-34.815,82.192-45.323c-0.088,1.716-0.125,3.444-0.125,5.172C94.591,207.931,105.086,234.243,122.468,254.481z"
	/>
<path d="M82.513,168.579c-10.914,10.909-37.836,34.276-71.473,38.288c-4.67,0.557-8.636,3.684-10.264,8.096
	c-1.629,4.413-0.65,9.366,2.539,12.825c1.592,1.727,37.457,39.74,105.634,39.738c2.705,0,5.468-0.068,8.276-0.192
	c0.526,0.556,1.044,1.121,1.58,1.667c-19.415,20.843-30.443,48.097-30.663,76.658c-0.224,30.788,11.594,59.774,33.278,81.615
	c21.682,21.84,50.568,33.867,81.338,33.867h155.517c50.332,0,91.082-19.931,117.84-57.636c23.477-33.082,35.886-79.3,35.886-133.661
	v-18.648c0-13.375-7.289-25.69-19.023-32.138c-11.854-6.514-25.73-6.081-37.119,1.151c-32.916,20.896-79.957,30.239-136.975,27.373
	c12.867-20.341,19.778-43.956,19.778-68.435c0-70.739-57.551-128.291-128.29-128.291C143.111,50.86,87.847,102.229,82.513,168.579z
	 M83.927,200.797c2.488,14.537,7.473,28.522,14.704,41.344c-25.533-1.704-44.748-9.525-57.591-16.932
	C58.179,218.964,72.735,209.62,83.927,200.797z M210.372,75.907c56.928,0,103.243,46.315,103.243,103.244
	c0,26.306-9.92,51.373-27.934,70.583c-3.257,3.474-4.262,8.495-2.594,12.956c1.669,4.461,5.723,7.588,10.462,8.07
	c72.976,7.425,133.734-2.74,175.735-29.402c5.133-3.261,9.843-1.327,11.629-0.346c1.816,0.998,6.039,3.989,6.039,10.187v18.648
	c0,49.136-10.812,90.342-31.265,119.164c-22.173,31.244-54.948,47.086-97.414,47.086H202.757c-24.045,0-46.62-9.399-63.563-26.467
	c-16.946-17.07-26.182-39.723-26.006-63.781c0.199-25.927,11.87-50.51,32.015-67.442c2.854-2.401,4.492-5.947,4.465-9.678
	c-0.026-3.73-1.714-7.254-4.605-9.612c-4.689-3.827-9.093-8.13-13.091-12.79c-0.001-0.001-0.003-0.004-0.005-0.006
	c-16.028-18.66-24.854-42.515-24.854-67.17c0-1.628,0.035-3.11,0.113-4.625C109.648,119.226,154.954,75.907,210.372,75.907z"/>
<path d="M292.388,399.779h10.432c6.915,0,12.524-5.607,12.524-12.524c0-6.917-5.608-12.524-12.524-12.524h-10.432
	c-6.915,0-12.524,5.607-12.524,12.524C279.864,394.172,285.471,399.779,292.388,399.779z"/>
<path d="M353.084,395.235c1.145,0,2.309-0.158,3.464-0.49c29.662-8.52,55.429-27.463,72.559-53.34
	c3.817-5.767,2.237-13.538-3.53-17.355c-5.768-3.817-13.538-2.238-17.355,3.53c-13.842,20.912-34.649,36.216-58.586,43.091
	c-6.649,1.91-10.488,8.847-8.58,15.494C342.631,391.66,347.64,395.235,353.084,395.235z"/>
<path d="M179.087,182.846c6.916,0,12.524-5.607,12.524-12.524v-31.434c0-6.917-5.608-12.524-12.524-12.524
	c-6.915,0-12.524,5.607-12.524,12.524v31.434C166.564,177.239,172.172,182.846,179.087,182.846z"/>
</svg>